<svg width="144" height="144" viewBox="0 0 144 144" fill="none" xmlns="http://www.w3.org/2000/svg">
<rect width="144" height="144" rx="24" fill="#182B02"/>
<path fill-rule="evenodd" clip-rule="evenodd" d="M119.988 81.5166L93.861 76.3479C94.1375 74.9506 94.2866 73.4866 94.2866 71.9615C94.2866 70.4363 94.1375 68.9723 93.861 67.5751L119.988 62.4063C120.599 65.4967 120.92 68.6917 120.92 71.9615C120.92 75.2313 120.599 78.4262 119.988 81.5166ZM112.673 44.7585L90.5419 59.5752C88.9042 57.129 86.7925 55.0173 84.3463 53.3795L99.1629 31.248C104.502 34.8225 109.099 39.4194 112.673 44.7585ZM81.5151 23.9334L76.3464 50.0604C74.9491 49.784 73.4852 49.6349 71.96 49.6349C70.4348 49.6349 68.9708 49.784 67.5736 50.0604L62.4049 23.9334C65.4952 23.322 68.6902 23.0015 71.96 23.0015C75.2298 23.0015 78.4248 23.322 81.5151 23.9334ZM44.7571 31.248L59.5737 53.3795C57.1275 55.0173 55.0158 57.129 53.3781 59.5752L31.2466 44.7585C34.821 39.4194 39.4179 34.8225 44.7571 31.248ZM23.9319 62.4063C23.3205 65.4967 23 68.6917 23 71.9615C23 75.2313 23.3205 78.4262 23.9319 81.5166L50.059 76.3479C49.7825 74.9506 49.6334 73.4866 49.6334 71.9615C49.6334 70.4363 49.7825 68.9723 50.059 67.5751L23.9319 62.4063ZM31.2466 99.1644L53.3781 84.3477C55.0158 86.7939 57.1275 88.9057 59.5737 90.5434L44.7571 112.675C39.4179 109.1 34.821 104.504 31.2466 99.1644ZM62.4049 119.99L67.5736 93.8625C68.9708 94.1389 70.4348 94.288 71.96 94.288C73.4852 94.288 74.9491 94.1389 76.3464 93.8625L81.5151 119.99C78.4248 120.601 75.2298 120.921 71.96 120.921C68.6902 120.921 65.4952 120.601 62.4049 119.99ZM99.1629 112.675L84.3462 90.5434C86.7925 88.9057 88.9042 86.7939 90.5419 84.3477L112.673 99.1644C109.099 104.504 104.502 109.1 99.1629 112.675Z" fill="#8CCE11"/>
</svg>