<svg width="109" height="25" viewBox="0 0 109 25" fill="none" xmlns="http://www.w3.org/2000/svg">
<path d="M55.3926 5.16309C57.1675 5.1631 58.5711 5.60682 59.6035 6.49414C60.636 7.38169 61.1523 8.66804 61.1523 10.3525V15.3789C61.1523 15.9222 61.4062 16.1942 61.9131 16.1943H63V19.0205H60.7178C60.0477 19.0205 59.4952 18.8573 59.0605 18.5312C58.6258 18.2052 58.4082 17.77 58.4082 17.2266V17.2002H57.8926C57.8201 17.4175 57.6568 17.7072 57.4033 18.0693C57.1498 18.4134 56.7513 18.7215 56.208 18.9932C55.6646 19.2649 54.9214 19.4004 53.9795 19.4004C53.0195 19.4004 52.1592 19.2372 51.3984 18.9111C50.6377 18.567 50.0309 18.0783 49.5781 17.4443C49.1434 16.7922 48.9258 16.0039 48.9258 15.0801C48.9258 14.1565 49.1435 13.3863 49.5781 12.7705C50.0309 12.1367 50.647 11.6663 51.4258 11.3584C52.2228 11.0324 53.1283 10.8691 54.1426 10.8691H57.8379V10.1084C57.8379 9.47447 57.6387 8.95806 57.2402 8.55957C56.8417 8.14295 56.2074 7.93457 55.3379 7.93457C54.4868 7.93461 53.8531 8.13389 53.4365 8.53223C53.02 8.91255 52.7479 9.41064 52.6211 10.0264L49.4688 8.9668C49.6861 8.2785 50.031 7.65331 50.502 7.0918C50.991 6.51232 51.6338 6.05015 52.4307 5.70605C53.2458 5.34378 54.2333 5.16309 55.3926 5.16309ZM8.25977 0C9.45529 0 10.4972 0.208378 11.3848 0.625C12.2721 1.04153 12.9602 1.63011 13.4492 2.39062C13.9383 3.15141 14.1836 4.04856 14.1836 5.08105V5.40723C14.1836 6.54832 13.9116 7.4723 13.3682 8.17871C12.8248 8.88509 12.1544 9.40151 11.3574 9.72754V10.2158C12.082 10.252 12.6435 10.5066 13.042 10.9775C13.4404 11.4304 13.6396 12.0372 13.6396 12.7979V19.0195H10.0537V13.3135C10.0537 12.8789 9.93562 12.5255 9.7002 12.2539C9.48282 11.9822 9.1112 11.8467 8.58594 11.8467H3.58691V19.0195H0V0H8.25977ZM41.5039 19.0195H38.0801V0H41.5039V19.0195ZM47.3613 19.0195H43.9375V0H47.3613V19.0195ZM54.3867 13.4229C53.7529 13.4229 53.2548 13.5594 52.8926 13.8311C52.5305 14.1027 52.3496 14.4828 52.3496 14.9717C52.3496 15.4607 52.5396 15.8591 52.9199 16.167C53.3003 16.4749 53.8527 16.6289 54.5771 16.6289C55.5372 16.6289 56.3163 16.3661 56.9141 15.8408C57.5298 15.2974 57.8379 14.5818 57.8379 13.6943V13.4229H54.3867ZM3.58691 8.58594H7.87988C8.73103 8.58589 9.39238 8.35995 9.86328 7.90723C10.3523 7.43635 10.5966 6.82016 10.5967 6.05957V5.78711C10.5966 5.02653 10.3615 4.41957 9.89062 3.9668C9.41971 3.49588 8.74922 3.26079 7.87988 3.26074H3.58691V8.58594Z" fill="#1A1C17"/>
<path fill-rule="evenodd" clip-rule="evenodd" d="M35.5819 11.7668L30.4279 10.7472C30.4824 10.4716 30.5118 10.1828 30.5118 9.8819C30.5118 9.58103 30.4824 9.29224 30.4279 9.0166L35.5819 7.99697C35.7025 8.60661 35.7658 9.23687 35.7658 9.8819C35.7658 10.5269 35.7025 11.1572 35.5819 11.7668ZM34.139 4.51562L29.7731 7.43848C29.45 6.95592 29.0335 6.53934 28.5509 6.21627L31.4738 1.85042C32.527 2.55555 33.4338 3.46237 34.139 4.51562ZM27.9924 0.407469L26.9728 5.56152C26.6972 5.50699 26.4084 5.47757 26.1075 5.47757C25.8066 5.47757 25.5178 5.50699 25.2422 5.56152L24.2226 0.407469C24.8322 0.286865 25.4625 0.223633 26.1075 0.223633C26.7525 0.223633 27.3828 0.286865 27.9924 0.407469ZM20.7412 1.85042L23.6641 6.21627C23.1815 6.53934 22.7649 6.95592 22.4419 7.43848L18.076 4.51562C18.7811 3.46237 19.688 2.55555 20.7412 1.85042ZM16.6331 7.99697C16.5125 8.60661 16.4492 9.23687 16.4492 9.8819C16.4492 10.5269 16.5125 11.1572 16.6331 11.7668L21.7871 10.7472C21.7326 10.4716 21.7032 10.1828 21.7032 9.8819C21.7032 9.58103 21.7326 9.29224 21.7871 9.0166L16.6331 7.99697ZM18.076 15.2482L22.4419 12.3253C22.7649 12.8079 23.1815 13.2245 23.6641 13.5475L20.7412 17.9134C19.688 17.2083 18.7811 16.3014 18.076 15.2482ZM24.2226 19.3563L25.2422 14.2023C25.5178 14.2568 25.8066 14.2862 26.1075 14.2862C26.4084 14.2862 26.6972 14.2568 26.9728 14.2023L27.9924 19.3563C27.3828 19.4769 26.7525 19.5402 26.1075 19.5402C25.4625 19.5402 24.8322 19.4769 24.2226 19.3563ZM31.4738 17.9134L28.5509 13.5475C29.0335 13.2245 29.45 12.8079 29.7731 12.3253L34.139 15.2482C33.4338 16.3014 32.527 17.2083 31.4738 17.9134Z" fill="#548704"/>
<path d="M66 19.1579V0H73.8821C75.0863 0 76.1446 0.246316 77.0568 0.738948C77.9874 1.21333 78.7081 1.88842 79.2189 2.76421C79.7481 3.64 80.0126 4.68 80.0126 5.88421V6.26737C80.0126 7.45333 79.7389 8.49333 79.1916 9.38737C78.6625 10.2632 77.9326 10.9474 77.0021 11.44C76.0898 11.9144 75.0498 12.1516 73.8821 12.1516H69.6126V19.1579H66ZM69.6126 8.86737H73.5263C74.3839 8.86737 75.0772 8.63018 75.6063 8.15579C76.1354 7.6814 76.4 7.03369 76.4 6.21263V5.93895C76.4 5.1179 76.1354 4.47018 75.6063 3.99579C75.0772 3.5214 74.3839 3.28421 73.5263 3.28421H69.6126V8.86737Z" fill="#548704"/>
<path d="M85.2058 19.5411C84.2388 19.5411 83.3721 19.3768 82.6058 19.0484C81.8395 18.7018 81.2282 18.2091 80.7721 17.5705C80.3342 16.9137 80.1153 16.12 80.1153 15.1895C80.1153 14.2589 80.3342 13.4835 80.7721 12.8632C81.2282 12.2246 81.8486 11.7502 82.6332 11.44C83.436 11.1116 84.3482 10.9474 85.37 10.9474H89.0921V10.1811C89.0921 9.54246 88.8914 9.02246 88.49 8.62105C88.0886 8.2014 87.45 7.99158 86.5742 7.99158C85.7167 7.99158 85.0781 8.19228 84.6584 8.59369C84.2388 8.97684 83.9651 9.4786 83.8374 10.0989L80.6626 9.03158C80.8816 8.33825 81.2282 7.70877 81.7026 7.14316C82.1953 6.5593 82.843 6.09404 83.6458 5.74737C84.4668 5.38246 85.4612 5.2 86.6289 5.2C88.417 5.2 89.8311 5.64702 90.8711 6.54105C91.9111 7.43509 92.4311 8.73053 92.4311 10.4274V15.4905C92.4311 16.0379 92.6865 16.3116 93.1974 16.3116H94.2921V19.1579H91.9932C91.3181 19.1579 90.7616 18.9937 90.3237 18.6653C89.8858 18.3368 89.6668 17.8989 89.6668 17.3516V17.3242H89.1468C89.0739 17.5432 88.9096 17.8351 88.6542 18.2C88.3988 18.5467 87.9974 18.8568 87.45 19.1305C86.9026 19.4042 86.1546 19.5411 85.2058 19.5411ZM85.8079 16.7495C86.7749 16.7495 87.5595 16.4849 88.1616 15.9558C88.7819 15.4084 89.0921 14.6877 89.0921 13.7937V13.52H85.6163C84.9777 13.52 84.476 13.6568 84.1111 13.9305C83.7461 14.2042 83.5637 14.5874 83.5637 15.08C83.5637 15.5726 83.7553 15.974 84.1384 16.2842C84.5216 16.5944 85.0781 16.7495 85.8079 16.7495Z" fill="#548704"/>
<path d="M96.5487 24.6316V21.6211H103.938C104.449 21.6211 104.705 21.3474 104.705 20.8V17.3789H104.212C104.066 17.6891 103.838 17.9993 103.528 18.3095C103.217 18.6196 102.798 18.8751 102.269 19.0758C101.74 19.2765 101.065 19.3768 100.243 19.3768C99.1852 19.3768 98.2547 19.1397 97.4519 18.6653C96.6673 18.1726 96.0561 17.4975 95.6182 16.64C95.1803 15.7825 94.9613 14.7972 94.9613 13.6842V5.58316H98.4098V13.4105C98.4098 14.4323 98.6561 15.1986 99.1487 15.7095C99.6596 16.2204 100.38 16.4758 101.311 16.4758C102.369 16.4758 103.19 16.1291 103.774 15.4358C104.358 14.7242 104.65 13.7389 104.65 12.48V5.58316H108.098V21.5663C108.098 22.4968 107.825 23.2358 107.277 23.7832C106.73 24.3488 106 24.6316 105.088 24.6316H96.5487Z" fill="#548704"/>
</svg>
